<svg xmlns="http://www.w3.org/2000/svg"  viewBox="0 0 50 50" width="50px" height="50px"><path fill="#ffffff" d="M 21 2 C 16.59375 2 13 5.59375 13 10 C 13 12.953125 14.609375 15.523438 17 16.90625 L 17 32.34375 L 11.84375 27.15625 C 10.289063 25.601563 7.742188 25.601563 6.1875 27.15625 C 4.632813 28.710938 4.632813 31.257813 6.1875 32.8125 L 17.53125 44.1875 C 19.96875 46.625 23.273438 48 26.71875 48 L 34 48 C 38.957031 48 43 43.957031 43 39 L 43 26 C 43 23.800781 41.199219 22 39 22 C 38.167969 22 37.394531 22.246094 36.75 22.6875 C 36.203125 21.128906 34.738281 20 33 20 C 32.011719 20 31.136719 20.398438 30.4375 21 C 29.742188 19.816406 28.464844 19 27 19 C 26.265625 19 25.59375 19.214844 25 19.5625 L 25 16.90625 C 27.390625 15.523438 29 12.953125 29 10 C 29 5.59375 25.40625 2 21 2 Z M 21 4 C 24.324219 4 27 6.675781 27 10 C 27 11.78125 26.230469 13.375 25 14.46875 L 25 10 C 25 7.800781 23.199219 6 21 6 C 18.800781 6 17 7.800781 17 10 L 17 14.46875 C 15.769531 13.375 15 11.785156 15 10 C 15 6.675781 17.675781 4 21 4 Z M 21 8 C 22.117188 8 23 8.882813 23 10 L 23 16.1875 C 22.984375 16.292969 22.984375 16.394531 23 16.5 L 23 25 C 22.992188 25.308594 23.128906 25.601563 23.367188 25.796875 C 23.601563 25.992188 23.917969 26.066406 24.21875 26 C 24.320313 25.972656 24.414063 25.929688 24.5 25.875 C 24.519531 25.867188 24.542969 25.855469 24.5625 25.84375 C 24.621094 25.796875 24.671875 25.746094 24.71875 25.6875 C 24.898438 25.503906 24.996094 25.257813 25 25 L 25 23 C 25 21.882813 25.882813 21 27 21 C 28.117188 21 29 21.882813 29 23 L 29 25 C 29.003906 25.0625 29.015625 25.125 29.03125 25.1875 C 29.046875 25.285156 29.078125 25.378906 29.125 25.46875 C 29.164063 25.558594 29.21875 25.644531 29.28125 25.71875 C 29.328125 25.765625 29.382813 25.808594 29.4375 25.84375 C 29.46875 25.867188 29.5 25.886719 29.53125 25.90625 C 29.621094 25.953125 29.714844 25.984375 29.8125 26 C 29.945313 26.027344 30.085938 26.027344 30.21875 26 C 30.320313 25.972656 30.414063 25.929688 30.5 25.875 C 30.519531 25.867188 30.542969 25.855469 30.5625 25.84375 C 30.621094 25.796875 30.671875 25.746094 30.71875 25.6875 C 30.898438 25.503906 30.996094 25.257813 31 25 L 31 24 C 31 22.882813 31.882813 22 33 22 C 34.117188 22 35 22.882813 35 24 L 35 26 C 35 26.03125 35 26.0625 35 26.09375 L 35 27 C 34.996094 27.359375 35.183594 27.695313 35.496094 27.878906 C 35.808594 28.058594 36.191406 28.058594 36.503906 27.878906 C 36.816406 27.695313 37.003906 27.359375 37 27 L 37 26.15625 C 37.003906 26.105469 37.003906 26.050781 37 26 C 37 24.882813 37.882813 24 39 24 C 40.117188 24 41 24.882813 41 26 L 41 39 C 41 42.878906 37.878906 46 34 46 L 26.71875 46 C 23.800781 46 21 44.84375 18.9375 42.78125 L 7.59375 31.40625 C 6.804688 30.617188 6.804688 29.382813 7.59375 28.59375 C 8.382813 27.804688 9.617188 27.804688 10.40625 28.59375 L 17.15625 35.3125 C 17.191406 35.367188 17.234375 35.421875 17.28125 35.46875 C 17.300781 35.492188 17.320313 35.511719 17.34375 35.53125 C 17.476563 35.644531 17.640625 35.71875 17.8125 35.75 C 17.945313 35.777344 18.085938 35.777344 18.21875 35.75 C 18.28125 35.734375 18.347656 35.714844 18.40625 35.6875 C 18.4375 35.667969 18.46875 35.648438 18.5 35.625 C 18.785156 35.460938 18.972656 35.171875 19 34.84375 C 19 34.832031 19 34.824219 19 34.8125 C 19 34.792969 19 34.769531 19 34.75 C 19.003906 34.707031 19.003906 34.667969 19 34.625 L 19 16.4375 C 19.015625 16.332031 19.015625 16.230469 19 16.125 L 19 10 C 19 8.882813 19.882813 8 21 8 Z"/></svg>