<svg xmlns="http://www.w3.org/2000/svg"  viewBox="0 0 50 50" width="50px" height="50px"><path fill="#ffffff" d="M 21 2 C 16.593562 2 13 5.593562 13 10 C 13 12.948362 14.616181 15.513522 17 16.898438 L 17 32.341797 L 11.830078 27.169922 C 10.276168 25.616012 7.7257851 25.616012 6.171875 27.169922 C 4.6179649 28.723832 4.6179649 31.274215 6.171875 32.828125 L 17.535156 44.191406 C 19.972356 46.628606 23.277987 47.996964 26.724609 47.998047 L 34 48 C 38.958365 48 43 43.960469 43 39.001953 L 43 26 C 43 23.802666 41.197334 22 39 22 C 38.171539 22 37.400559 22.256318 36.759766 22.693359 C 36.212352 21.134468 34.738049 20 33 20 C 31.99751 20 31.102924 20.408662 30.398438 21.025391 C 29.701829 19.839085 28.46573 19 27 19 C 26.257342 19 25.598131 19.261659 25 19.619141 L 25 16.898438 C 27.109953 15.672901 28.608358 13.524278 28.925781 11 L 43.601562 11 L 40.291016 14.34375 A 1.0001 1.0001 0 1 0 41.710938 15.751953 L 46.625 10.791016 A 1.0001 1.0001 0 0 0 46.810547 10.603516 L 47.408203 10 L 46.806641 9.3925781 A 1.0001 1.0001 0 0 0 46.623047 9.2070312 L 41.818359 4.3554688 A 1.0001 1.0001 0 0 0 41.103516 4.0488281 A 1.0001 1.0001 0 0 0 40.396484 5.7617188 L 43.601562 9 L 28.931641 9 C 28.436277 5.0633865 25.067308 2 21 2 z M 21 4 C 24.285974 4 26.931507 6.61244 26.994141 9.8828125 A 1.0001 1.0001 0 0 0 26.992188 10.111328 A 1.0001 1.0001 0 0 0 26.992188 10.115234 C 26.959114 11.846894 26.198468 13.388152 25 14.458984 L 25 10 C 25 7.8026661 23.197334 6 21 6 C 18.802666 6 17 7.8026661 17 10 L 17 14.460938 C 15.774518 13.36628 15 11.78002 15 10 C 15 6.674438 17.674438 4 21 4 z M 21 8 C 22.116666 8 23 8.8833339 23 10 L 23 16.291016 L 23 23 L 23 25 A 1.0001 1.0001 0 0 0 23.115234 25.480469 A 1.0001 1.0001 0 0 0 23.166016 25.566406 A 1.0001 1.0001 0 0 0 23.226562 25.648438 A 1.0001 1.0001 0 0 0 23.292969 25.720703 A 1.0001 1.0001 0 0 0 23.367188 25.789062 A 1.0001 1.0001 0 0 0 23.533203 25.898438 A 1.0001 1.0001 0 0 0 23.816406 25.998047 A 1.0001 1.0001 0 0 0 24.015625 26.013672 A 1.0001 1.0001 0 0 0 24.115234 26.007812 A 1.0001 1.0001 0 0 0 24.402344 25.929688 A 1.0001 1.0001 0 0 0 24.492188 25.884766 A 1.0001 1.0001 0 0 0 24.576172 25.830078 A 1.0001 1.0001 0 0 0 24.65625 25.769531 A 1.0001 1.0001 0 0 0 24.728516 25.699219 A 1.0001 1.0001 0 0 0 24.792969 25.623047 A 1.0001 1.0001 0 0 0 24.849609 25.541016 A 1.0001 1.0001 0 0 0 24.898438 25.455078 A 1.0001 1.0001 0 0 0 24.988281 25.169922 A 1.0001 1.0001 0 0 0 24.998047 25.070312 A 1.0001 1.0001 0 0 0 25 25 L 25 23 C 25 21.883334 25.883334 21 27 21 C 28.116666 21 29 21.883334 29 23 L 29 24 L 29 25 A 1.0001 1.0001 0 0 0 29.003906 25.099609 A 1.0001 1.0001 0 0 0 29.017578 25.199219 A 1.0001 1.0001 0 0 0 29.226562 25.648438 A 1.0001 1.0001 0 0 0 29.533203 25.898438 A 1.0001 1.0001 0 0 0 29.71875 25.974609 A 1.0001 1.0001 0 0 0 29.816406 25.998047 A 1.0001 1.0001 0 0 0 29.916016 26.009766 A 1.0001 1.0001 0 0 0 30.115234 26.007812 A 1.0001 1.0001 0 0 0 30.492188 25.884766 A 1.0001 1.0001 0 0 0 30.576172 25.830078 A 1.0001 1.0001 0 0 0 30.65625 25.769531 A 1.0001 1.0001 0 0 0 30.728516 25.699219 A 1.0001 1.0001 0 0 0 30.849609 25.541016 A 1.0001 1.0001 0 0 0 30.9375 25.363281 A 1.0001 1.0001 0 0 0 30.988281 25.169922 A 1.0001 1.0001 0 0 0 30.998047 25.070312 A 1.0001 1.0001 0 0 0 31 25 L 31 24 C 31 22.883334 31.883334 22 33 22 C 34.116666 22 35 22.883334 35 24 L 35 26 L 35 27 A 1.0001 1.0001 0 1 0 37 27 L 37 26 C 37 24.883334 37.883334 24 39 24 C 40.116666 24 41 24.883334 41 26 L 41 39.001953 C 41 42.879437 37.877635 46 34 46 L 26.724609 45.998047 C 23.807231 45.99713 21.012019 44.840144 18.949219 42.777344 L 7.5859375 31.414062 C 6.7958476 30.623973 6.7958476 29.376026 7.5859375 28.585938 C 8.3760274 27.795848 9.6239731 27.795847 10.414062 28.585938 L 17.210938 35.382812 A 1.0001 1.0001 0 0 0 19 34.755859 L 19 16.332031 L 19 10 C 19 8.8833339 19.883334 8 21 8 z"/></svg>