<svg xmlns="http://www.w3.org/2000/svg"  viewBox="0 0 50 50" width="50px" height="50px"><path fill="#ffffff" d="M 28.992188 9 C 23.927187 9 19.631328 11.6725 17.486328 16.0625 C 16.387328 15.3715 15.062625 15 13.640625 15 C 10.003625 15 7.2249531 17.765719 7.0019531 21.511719 C 2.5399531 23.020719 5.9211895e-16 26.561078 0 31.330078 C 0 36.662078 4.3379219 41 9.6699219 41 L 25 41 C 24.729 40.577 24.4865 40.112422 24.3125 39.607422 C 24.1575 39.427422 24.016766 39.223 23.884766 39 L 9.6699219 39 C 5.4399219 39 2 35.559078 2 31.330078 C 2 25.775078 5.9265781 23.861844 8.2675781 23.214844 L 9.0273438 23.005859 L 8.9863281 22 C 8.9863281 19.149 10.988625 17 13.640625 17 C 15.048625 17 16.306594 17.483328 17.183594 18.361328 L 18.287109 19.466797 L 18.828125 18.003906 C 20.428125 13.684906 24.322187 11 28.992188 11 C 35.164187 11 40 15.832 40 22 C 40 22.414 39.969297 22.853813 39.904297 23.382812 L 39.824219 24.501953 L 40.955078 24.501953 C 44.445078 24.501953 47.634797 27.746797 47.966797 31.466797 C 48.172797 32.560797 48.168453 33.75175 47.939453 34.96875 C 48.108453 35.53075 48.16775 36.153734 48.09375 36.802734 C 48.04975 37.188734 47.969047 37.532422 47.873047 37.857422 C 49.197047 36.302422 50 34.295609 50 32.099609 C 50 27.370609 46.386375 23.179125 41.984375 22.578125 C 41.995375 22.379125 42 22.188 42 22 C 42 14.71 36.286187 9 28.992188 9 z M 31.53125 27 C 28.666596 27 26.601562 27.948062 25.576172 29.634766 C 24.636971 31.179693 24.690715 33.125828 25.201172 35.138672 C 24.963601 35.515516 24.804615 35.968124 24.873047 36.558594 C 24.951737 37.239587 25.128895 37.765276 25.435547 38.173828 C 25.535447 38.306925 25.700313 38.304011 25.826172 38.402344 C 25.952656 39.119342 26.244546 39.74925 26.595703 40.228516 C 26.814942 40.527737 27.041695 40.781965 27.251953 40.986328 C 27.286793 41.020188 27.323253 41.037669 27.355469 41.068359 L 27.355469 42.460938 C 27.244338 42.716146 27.040134 42.940359 26.558594 43.205078 C 26.041654 43.489257 25.308485 43.764119 24.53125 44.132812 C 23.754015 44.501506 22.915857 44.974805 22.236328 45.748047 C 21.556799 46.521289 21.081303 47.596567 21.003906 48.941406 A 1.0001 1.0001 0 0 0 22.003906 49.998047 L 39.929688 49.998047 A 1.0001 1.0001 0 0 0 40 50 L 49 50 A 1.0001 1.0001 0 0 0 49.998047 48.943359 C 49.920651 47.598525 49.4451 46.523377 48.765625 45.75 C 48.08615 44.976623 47.249925 44.501656 46.472656 44.132812 C 45.695387 43.76397 44.960408 43.489238 44.443359 43.205078 C 43.960539 42.939729 43.757138 42.714455 43.646484 42.458984 L 43.646484 41.058594 C 43.680444 41.024904 43.722664 41.004167 43.759766 40.966797 C 43.966542 40.758543 44.188249 40.50204 44.402344 40.203125 C 44.721041 39.758166 44.901034 39.121985 45.044922 38.486328 C 45.213475 38.37382 45.418454 38.364455 45.546875 38.193359 C 45.853825 37.78441 46.031275 37.257275 46.109375 36.576172 C 46.160045 36.132622 46.115775 35.72263 45.962891 35.353516 C 45.934421 35.284766 45.82415 35.253407 45.787109 35.185547 C 46.159786 33.762451 46.27207 32.215265 45.722656 30.826172 C 45.176273 29.444746 43.778923 28.470249 41.931641 28.234375 L 41.341797 27.416016 A 1.0001 1.0001 0 0 0 40.53125 27 C 38.073918 27 36.212535 27.693079 35.082031 28.962891 C 34.474578 28.596381 33.751282 28.339033 32.931641 28.234375 L 32.341797 27.416016 A 1.0001 1.0001 0 0 0 31.53125 27 z M 40.070312 29.074219 L 40.474609 29.634766 A 1.0001 1.0001 0 0 0 41.287109 30.050781 C 42.904746 30.050781 43.495254 30.632015 43.863281 31.5625 C 44.231308 32.492985 44.179045 33.893896 43.789062 35.105469 A 1.0001 1.0001 0 0 0 44.115234 36.191406 C 44.121434 36.222806 44.133634 36.239456 44.121094 36.349609 C 44.073924 36.760952 43.987362 36.903815 43.960938 36.945312 A 1.0001 1.0001 0 0 0 43.265625 37.896484 C 43.265625 38.137983 43.069155 38.631642 42.777344 39.039062 C 42.631438 39.242773 42.469817 39.427692 42.339844 39.558594 C 42.20987 39.689496 42.057067 39.782333 42.166016 39.722656 A 1.0001 1.0001 0 0 0 41.646484 40.599609 L 41.646484 42.742188 A 1.0001 1.0001 0 0 0 41.705078 43.078125 C 42.032628 43.997104 42.76783 44.565379 43.480469 44.957031 C 44.193107 45.348684 44.944253 45.621047 45.615234 45.939453 C 46.286215 46.257859 46.86046 46.609424 47.263672 47.068359 C 47.452553 47.283383 47.485227 47.7085 47.609375 48 L 40.873047 48 C 40.67529 47.08734 40.280263 46.330995 39.767578 45.748047 C 39.117478 45.008849 38.324163 44.547266 37.576172 44.185547 C 37.878285 43.884495 38.135938 43.524447 38.294922 43.078125 A 1.0001 1.0001 0 0 0 38.353516 42.742188 L 38.353516 40.599609 A 1.0001 1.0001 0 0 0 37.830078 39.720703 C 37.921648 39.770323 37.773378 39.679873 37.642578 39.552734 C 37.511774 39.425598 37.351089 39.248107 37.205078 39.048828 C 36.925037 38.666623 36.734326 38.213323 36.71875 37.919922 C 36.920569 37.555668 37.047459 37.116132 37.109375 36.576172 C 37.160045 36.132622 37.115775 35.72263 36.962891 35.353516 C 36.934421 35.284766 36.82415 35.253407 36.787109 35.185547 C 37.159786 33.762451 37.27207 32.215265 36.722656 30.826172 C 36.661565 30.671714 36.585714 30.524679 36.503906 30.380859 C 37.109933 29.649739 38.235991 29.164608 40.070312 29.074219 z M 31.072266 29.076172 L 31.474609 29.634766 A 1.0001 1.0001 0 0 0 32.287109 30.050781 C 33.904746 30.050781 34.495254 30.632015 34.863281 31.5625 C 35.231308 32.492985 35.179045 33.893896 34.789062 35.105469 A 1.0001 1.0001 0 0 0 35.115234 36.191406 C 35.121434 36.222806 35.133634 36.239456 35.121094 36.349609 C 35.073924 36.760952 34.987362 36.903815 34.960938 36.945312 A 1.0001 1.0001 0 0 0 34.265625 37.896484 C 34.265625 38.137983 34.069155 38.631642 33.777344 39.039062 C 33.631438 39.242773 33.469817 39.427692 33.339844 39.558594 C 33.20987 39.689496 33.057067 39.782333 33.166016 39.722656 A 1.0001 1.0001 0 0 0 32.646484 40.599609 L 32.646484 42.742188 A 1.0001 1.0001 0 0 0 32.705078 43.078125 C 33.032628 43.997104 33.767758 44.565387 34.480469 44.957031 C 35.193179 45.348675 35.944011 45.621072 36.615234 45.939453 C 37.286458 46.257834 37.861979 46.609392 38.265625 47.068359 C 38.454396 47.283002 38.48706 47.707315 38.611328 47.998047 L 23.394531 47.998047 C 23.518557 47.707495 23.549807 47.282826 23.738281 47.068359 C 24.14144 46.609601 24.715704 46.25776 25.386719 45.939453 C 26.057734 45.621147 26.808736 45.348852 27.521484 44.957031 C 28.234232 44.56521 28.971427 43.995503 29.298828 43.076172 A 1.0001 1.0001 0 0 0 29.355469 42.740234 L 29.355469 40.599609 A 1.0001 1.0001 0 0 0 28.832031 39.720703 C 28.923601 39.770323 28.777291 39.679873 28.646484 39.552734 C 28.51568 39.425598 28.354995 39.246153 28.208984 39.046875 C 27.916963 38.648318 27.716797 38.169753 27.716797 37.878906 A 1.0001 1.0001 0 0 0 27.021484 36.927734 C 26.994834 36.885944 26.906933 36.741638 26.859375 36.330078 A 1.0001 1.0001 0 0 0 26.859375 36.328125 C 26.849053 36.239069 26.861444 36.193186 26.875 36.164062 A 1.0001 1.0001 0 0 0 27.199219 35.107422 C 26.632076 33.206777 26.688294 31.655625 27.285156 30.673828 C 27.833418 29.771972 29.002933 29.17726 31.072266 29.076172 z M 35.482422 40.066406 C 35.519333 40.119776 35.554645 40.179763 35.591797 40.230469 C 35.811036 40.52969 36.037789 40.781965 36.248047 40.986328 C 36.283227 41.020518 36.321007 41.037399 36.353516 41.068359 L 36.353516 42.458984 C 36.239906 42.721832 36.027248 42.951511 35.525391 43.222656 A 1.0001 1.0001 0 0 0 35.505859 43.234375 C 35.48777 43.224725 35.460952 43.214745 35.443359 43.205078 C 34.960518 42.939751 34.757136 42.714453 34.646484 42.458984 L 34.646484 41.058594 C 34.680444 41.024904 34.722664 41.004167 34.759766 40.966797 C 34.966542 40.758543 35.188249 40.50204 35.402344 40.203125 C 35.432018 40.161695 35.45507 40.110997 35.482422 40.066406 z"/></svg>