<svg xmlns="http://www.w3.org/2000/svg"  viewBox="0 0 50 50" width="50px" height="50px"><path fill="#ffffff" d="M 15.90625 1.96875 C 15.863281 1.976563 15.820313 1.988281 15.78125 2 C 15.316406 2.105469 14.988281 2.523438 15 3 L 15 10.5625 L 12.71875 8.28125 C 12.476563 8.03125 12.121094 7.925781 11.78125 8 C 11.40625 8.066406 11.105469 8.339844 11 8.703125 C 10.894531 9.070313 11.003906 9.460938 11.28125 9.71875 L 15.15625 13.5625 C 15.175781 13.59375 15.195313 13.625 15.21875 13.65625 L 15.28125 13.71875 C 15.300781 13.742188 15.320313 13.761719 15.34375 13.78125 C 15.355469 13.78125 15.363281 13.78125 15.375 13.78125 C 15.441406 13.84375 15.515625 13.894531 15.59375 13.9375 C 15.605469 13.9375 15.613281 13.9375 15.625 13.9375 C 15.644531 13.949219 15.667969 13.960938 15.6875 13.96875 C 15.699219 13.96875 15.707031 13.96875 15.71875 13.96875 C 15.851563 14.007813 15.988281 14.015625 16.125 14 C 16.144531 14 16.167969 14 16.1875 14 C 16.273438 13.980469 16.359375 13.949219 16.4375 13.90625 C 16.570313 13.839844 16.6875 13.742188 16.78125 13.625 L 20.71875 9.71875 C 21.117188 9.320313 21.117188 8.679688 20.71875 8.28125 C 20.320313 7.882813 19.679688 7.882813 19.28125 8.28125 L 17 10.5625 L 17 3 C 17.011719 2.710938 16.894531 2.433594 16.6875 2.238281 C 16.476563 2.039063 16.191406 1.941406 15.90625 1.96875 Z M 36.9375 14 C 34.128906 14 31.980469 15.027344 30.71875 16.625 C 30.472656 16.554688 30.203125 16.507813 29.9375 16.46875 L 29.46875 15.5625 C 29.304688 15.226563 28.96875 15.007813 28.59375 15 C 25.167969 15 22.660156 16.394531 21.3125 18.40625 C 20.6875 17.992188 19.902344 17.734375 19.0625 17.625 L 18.5625 16.5625 C 18.394531 16.214844 18.042969 15.996094 17.65625 16 C 13.964844 16 11.242188 17.496094 9.8125 19.71875 C 8.507813 21.75 8.429688 24.308594 9.25 26.6875 C 8.886719 27.164063 8.648438 27.789063 8.75 28.65625 C 8.859375 29.613281 9.109375 30.300781 9.5 30.8125 C 9.671875 31.035156 9.910156 31.050781 10.125 31.1875 C 10.261719 31.984375 10.492188 32.777344 10.8125 33.4375 C 11 33.828125 11.191406 34.167969 11.40625 34.46875 C 11.476563 34.570313 11.613281 34.628906 11.6875 34.71875 C 11.691406 35.609375 11.695313 36.355469 11.625 37.28125 C 11.40625 37.816406 10.957031 38.246094 10.15625 38.6875 C 9.320313 39.148438 8.214844 39.574219 7.0625 40.125 C 5.910156 40.675781 4.707031 41.382813 3.75 42.46875 C 2.792969 43.554688 2.109375 45.023438 2 46.9375 C 1.984375 47.214844 2.082031 47.484375 2.269531 47.683594 C 2.460938 47.886719 2.722656 48 3 48 L 30 48 C 30.277344 48 30.539063 47.886719 30.730469 47.683594 C 30.917969 47.484375 31.015625 47.214844 31 46.9375 C 30.933594 45.800781 30.640625 44.839844 30.21875 44 L 40 44 C 40.277344 44 40.539063 43.886719 40.730469 43.683594 C 40.917969 43.484375 41.015625 43.214844 41 42.9375 C 40.933594 41.792969 40.601563 40.820313 40.125 40 L 47 40 C 47.277344 40 47.539063 39.886719 47.730469 39.683594 C 47.917969 39.484375 48.015625 39.214844 48 38.9375 C 47.90625 37.351563 47.292969 36.113281 46.4375 35.21875 C 45.582031 34.324219 44.53125 33.757813 43.53125 33.3125 C 42.53125 32.867188 41.550781 32.519531 40.84375 32.15625 C 40.175781 31.8125 39.839844 31.496094 39.6875 31.15625 C 39.636719 30.484375 39.652344 29.929688 39.65625 29.28125 C 39.703125 29.21875 39.796875 29.160156 39.84375 29.09375 C 40.023438 28.839844 40.191406 28.539063 40.34375 28.21875 C 40.589844 27.703125 40.753906 27.085938 40.875 26.46875 C 41.039063 26.355469 41.242188 26.359375 41.375 26.1875 C 41.722656 25.738281 41.9375 25.136719 42.03125 24.34375 C 42.089844 23.839844 42.015625 23.375 41.84375 22.96875 C 41.808594 22.886719 41.671875 22.863281 41.625 22.78125 C 41.792969 22.351563 42.011719 21.945313 42.0625 21.4375 C 42.140625 20.621094 42.109375 19.738281 41.875 18.84375 C 41.640625 17.949219 41.214844 17.039063 40.5 16.34375 C 39.929688 15.789063 39.117188 15.484375 38.21875 15.34375 L 37.84375 14.5625 C 37.675781 14.214844 37.324219 13.996094 36.9375 14 Z M 36.40625 16.125 L 36.65625 16.65625 C 36.828125 16.980469 37.164063 17.183594 37.53125 17.1875 C 38.269531 17.1875 38.71875 17.414063 39.09375 17.78125 C 39.46875 18.148438 39.773438 18.710938 39.9375 19.34375 C 40.101563 19.976563 40.152344 20.667969 40.09375 21.25 C 40.035156 21.832031 39.832031 22.3125 39.78125 22.375 C 39.613281 22.59375 39.539063 22.867188 39.582031 23.140625 C 39.621094 23.414063 39.773438 23.65625 40 23.8125 C 40.011719 23.855469 40.050781 23.945313 40.03125 24.125 C 39.96875 24.652344 39.832031 24.863281 39.78125 24.9375 C 39.78125 24.949219 39.78125 24.957031 39.78125 24.96875 C 39.359375 25.0625 39.042969 25.414063 39 25.84375 C 38.953125 26.304688 38.753906 26.90625 38.53125 27.375 C 38.417969 27.609375 38.308594 27.808594 38.21875 27.9375 C 38.171875 28 38.113281 28.050781 38.09375 28.0625 C 37.816406 28.253906 37.652344 28.570313 37.65625 28.90625 C 37.65625 29.773438 37.59375 30.492188 37.6875 31.53125 C 37.699219 31.617188 37.71875 31.699219 37.75 31.78125 C 38.140625 32.84375 39.042969 33.476563 39.9375 33.9375 C 40.832031 34.398438 41.816406 34.757813 42.71875 35.15625 C 43.621094 35.554688 44.433594 36 45 36.59375 C 45.359375 36.96875 45.605469 37.445313 45.78125 38 L 38.3125 38 C 37.578125 37.460938 36.78125 37.0625 36 36.71875 C 34.867188 36.222656 33.753906 35.820313 32.9375 35.40625 C 32.15625 35.011719 31.746094 34.644531 31.5625 34.21875 C 31.5 33.425781 31.496094 32.761719 31.5 32 C 31.5625 31.921875 31.6875 31.867188 31.75 31.78125 C 31.949219 31.503906 32.140625 31.199219 32.3125 30.84375 C 32.59375 30.257813 32.777344 29.546875 32.90625 28.84375 C 33.105469 28.714844 33.339844 28.707031 33.5 28.5 C 33.875 28.019531 34.113281 27.375 34.21875 26.5 C 34.285156 25.949219 34.21875 25.433594 34.03125 25 C 33.984375 24.886719 33.816406 24.855469 33.75 24.75 C 33.945313 24.273438 34.191406 23.828125 34.25 23.25 C 34.339844 22.347656 34.292969 21.332031 34.03125 20.34375 C 33.773438 19.367188 33.304688 18.414063 32.53125 17.65625 C 33.335938 16.816406 34.609375 16.246094 36.40625 16.125 Z M 28 17.0625 L 28.375 17.8125 C 28.546875 18.136719 28.882813 18.339844 29.25 18.34375 C 29.75 18.34375 30.136719 18.433594 30.46875 18.59375 C 30.5 18.617188 30.53125 18.636719 30.5625 18.65625 C 30.574219 18.664063 30.582031 18.679688 30.59375 18.6875 C 30.632813 18.710938 30.675781 18.730469 30.71875 18.75 C 30.730469 18.757813 30.738281 18.773438 30.75 18.78125 C 30.769531 18.792969 30.792969 18.804688 30.8125 18.8125 C 30.917969 18.890625 31.027344 18.96875 31.125 19.0625 C 31.574219 19.496094 31.902344 20.117188 32.09375 20.84375 C 32.285156 21.570313 32.347656 22.394531 32.28125 23.0625 C 32.214844 23.730469 31.988281 24.238281 31.90625 24.34375 C 31.722656 24.570313 31.644531 24.871094 31.699219 25.160156 C 31.753906 25.449219 31.933594 25.699219 32.1875 25.84375 C 32.207031 25.898438 32.246094 26.011719 32.21875 26.25 C 32.144531 26.878906 31.980469 27.1875 31.90625 27.28125 C 31.882813 27.308594 31.882813 27.304688 31.875 27.3125 C 31.429688 27.378906 31.082031 27.738281 31.03125 28.1875 C 30.972656 28.726563 30.757813 29.433594 30.5 29.96875 C 30.371094 30.238281 30.234375 30.472656 30.125 30.625 C 30.070313 30.699219 29.996094 30.757813 29.96875 30.78125 C 29.679688 30.964844 29.5 31.28125 29.5 31.625 C 29.5 32.605469 29.457031 33.429688 29.5625 34.59375 C 29.574219 34.679688 29.59375 34.761719 29.625 34.84375 C 30.050781 36 31.027344 36.707031 32.03125 37.21875 C 33.035156 37.730469 34.15625 38.109375 35.1875 38.5625 C 35.925781 38.886719 36.613281 39.230469 37.1875 39.65625 C 37.273438 39.761719 37.378906 39.84375 37.5 39.90625 C 37.613281 40.003906 37.710938 40.113281 37.8125 40.21875 C 38.265625 40.6875 38.550781 41.28125 38.75 42 L 28.6875 42 C 27.761719 41.171875 26.699219 40.59375 25.65625 40.125 C 24.4375 39.574219 23.234375 39.152344 22.34375 38.6875 C 21.492188 38.242188 21.027344 37.796875 20.8125 37.28125 C 20.742188 36.355469 20.746094 35.609375 20.75 34.71875 C 20.824219 34.628906 20.960938 34.570313 21.03125 34.46875 C 21.242188 34.167969 21.441406 33.796875 21.625 33.40625 C 21.933594 32.746094 22.113281 31.976563 22.25 31.1875 C 22.472656 31.050781 22.730469 31.046875 22.90625 30.8125 C 23.292969 30.300781 23.546875 29.613281 23.65625 28.65625 C 23.726563 28.0625 23.660156 27.519531 23.46875 27.0625 C 23.414063 26.929688 23.238281 26.871094 23.15625 26.75 C 23.386719 26.210938 23.652344 25.703125 23.71875 25.03125 C 23.8125 24.042969 23.746094 22.957031 23.46875 21.875 C 23.300781 21.21875 23.039063 20.570313 22.6875 19.96875 C 23.476563 18.410156 25.167969 17.222656 28 17.0625 Z M 17.09375 18.125 L 17.5 18.9375 C 17.667969 19.285156 18.019531 19.503906 18.40625 19.5 C 19.359375 19.5 19.96875 19.816406 20.46875 20.3125 C 20.480469 20.324219 20.488281 20.332031 20.5 20.34375 C 20.5 20.355469 20.5 20.363281 20.5 20.375 C 20.566406 20.65625 20.746094 20.894531 21 21.03125 C 21.222656 21.417969 21.40625 21.855469 21.53125 22.34375 C 21.742188 23.167969 21.792969 24.085938 21.71875 24.84375 C 21.644531 25.601563 21.421875 26.226563 21.3125 26.375 C 21.140625 26.605469 21.078125 26.898438 21.136719 27.179688 C 21.195313 27.460938 21.375 27.703125 21.625 27.84375 C 21.65625 27.917969 21.722656 28.101563 21.6875 28.40625 C 21.605469 29.125 21.40625 29.5 21.3125 29.625 C 21.289063 29.65625 21.292969 29.648438 21.28125 29.65625 C 20.8125 29.714844 20.445313 30.089844 20.40625 30.5625 C 20.34375 31.183594 20.097656 31.953125 19.8125 32.5625 C 19.667969 32.867188 19.5 33.136719 19.375 33.3125 C 19.28125 33.445313 19.171875 33.53125 19.1875 33.53125 C 18.910156 33.722656 18.746094 34.039063 18.75 34.375 C 18.75 35.464844 18.699219 36.375 18.8125 37.65625 C 18.824219 37.742188 18.84375 37.824219 18.875 37.90625 C 19.320313 39.144531 20.328125 39.902344 21.40625 40.46875 C 22.484375 41.035156 23.695313 41.433594 24.8125 41.9375 C 25.808594 42.386719 26.730469 42.902344 27.4375 43.5625 C 27.449219 43.574219 27.457031 43.582031 27.46875 43.59375 C 27.507813 43.640625 27.546875 43.679688 27.59375 43.71875 C 27.625 43.75 27.65625 43.78125 27.6875 43.8125 C 28.214844 44.375 28.566406 45.109375 28.78125 46 L 4.21875 46 C 4.425781 45.09375 4.753906 44.34375 5.25 43.78125 C 5.933594 43.007813 6.859375 42.441406 7.90625 41.9375 C 8.953125 41.433594 10.097656 41.003906 11.125 40.4375 C 12.152344 39.871094 13.125 39.121094 13.5625 37.90625 C 13.59375 37.824219 13.613281 37.742188 13.625 37.65625 C 13.738281 36.375 13.6875 35.464844 13.6875 34.375 C 13.691406 34.015625 13.5 33.679688 13.1875 33.5 C 13.152344 33.464844 13.09375 33.402344 13.03125 33.3125 C 12.902344 33.136719 12.773438 32.867188 12.625 32.5625 C 12.332031 31.957031 12.0625 31.175781 12 30.5625 C 11.960938 30.089844 11.59375 29.714844 11.125 29.65625 C 11.113281 29.652344 11.109375 29.65625 11.09375 29.65625 C 11.085938 29.648438 11.105469 29.640625 11.09375 29.625 C 11 29.5 10.800781 29.125 10.71875 28.40625 C 10.671875 27.992188 10.820313 27.804688 10.84375 27.78125 C 11.246094 27.519531 11.402344 27.007813 11.21875 26.5625 C 10.34375 24.542969 10.460938 22.425781 11.5 20.8125 C 12.460938 19.316406 14.320313 18.28125 17.09375 18.125 Z"/></svg>