<?xml version="1.0" encoding="UTF-8"?>
<svg width="28px" height="31px" viewBox="0 0 28 31" version="1.1" xmlns="http://www.w3.org/2000/svg" xmlns:xlink="http://www.w3.org/1999/xlink">
    <title>Layouts</title>
    <g id="Layouts" stroke="none" stroke-width="1" fill="none" fill-rule="evenodd">
        <g id="Artboard" transform="translate(-99.000000, -168.000000)">
            <g id="Group-4" transform="translate(69.000000, 168.000000)">
                <circle id="Oval" stroke="#FFFFFF" stroke-width="2" opacity="1.0" cx="42.5" cy="18.5" r="11.5"/>
                <path d="M55.1133164,1.94505777 C51.5488448,4.79409535 46.9440588,11.0784551 44.3721552,16.6406077 L43.2439294,19.1275469 L41.4846192,15.6461938 C39.7693549,12.254913 39.6794579,12.1648406 38.7310261,12.7971562 C38.1898388,13.1592455 36.6543686,14.1077279 35.3921998,14.8778652 C34.0841799,15.6921343 33,16.4145223 33,16.5064034 C33,16.5964849 33.9924777,17.274732 35.1665546,18.0430606 C36.3846775,18.8113891 38.7768772,20.93623 40.5360069,22.7447322 L43.7408903,26 L45.4561546,23.2869754 C48.9307291,17.9509082 54.2102844,12.0726882 57.0100896,10.5800725 C58.1383154,9.99188875 58.1841665,9.85587579 57.7328762,8.54530403 C57.461398,7.68690305 57.3714919,5.69626646 57.507231,3.57142559 C57.6870431,1.58259769 57.7328762,0 57.6870431,0 C57.6412101,0 56.4689203,0.858400985 55.1150493,1.94469604 L55.1133164,1.94505777 Z" id="Fill-1" fill="#FFFFFF"/>
            </g>
        </g>
    </g>
</svg>