<?xml version="1.0" encoding="UTF-8"?>
<svg width="18px" height="24px" viewBox="0 0 18 24" version="1.1" xmlns="http://www.w3.org/2000/svg" xmlns:xlink="http://www.w3.org/1999/xlink">
    <title>Fill 1</title>
    <g id="Layouts" stroke="none" stroke-width="1" fill="none" fill-rule="evenodd" opacity="1.0">
        <g id="Artboard" transform="translate(-197.000000, -175.000000)" fill="#FFFFFF">
            <g id="Group-4" transform="translate(69.000000, 168.000000)">
                <path d="M143.231415,16.524 L143.231415,13 C143.231415,9.6864 140.44228,7 137.000594,7 C133.561124,7 130.768666,9.68746667 130.768666,13 L130.768666,16.5250667 C129.172821,17.0261067 128,18.5333867 128,20.3354667 L128,26.9978667 C128,29.2020267 129.750563,31 131.901464,31 L142.102992,31 C144.251706,31 145.998917,29.20312 145.998917,26.9978667 L146,20.3333333 C146,18.5312533 144.828259,17.024 143.231334,16.524 L143.231415,16.524 Z M139,25.3631137 C139,26.267233 138.326128,27 137.49947,27 C136.670666,27 136,26.2660476 136,25.3631137 L136,22.6357305 C136,21.7316112 136.671753,21 137.49947,21 C138.327188,21 139,21.7327966 139,22.6357305 L139,25.3631137 Z M133,15.9988798 L133,12.4971996 C133,10.5653385 134.790302,9 137.00064,9 C139.20973,9 141,10.5653945 141,12.4971996 L141,16 L133,15.9988798 Z" id="Fill-1"/>
            </g>
        </g>
    </g>
</svg>